<svg width="30" height="30" viewBox="0 0 60 60" fill="none" xmlns="http://www.w3.org/2000/svg">
    <path
        d="M42.4167 13.9864C42.4167 11.9982 44.0292 10.3876 46.0167 10.3876V10.3864C48.0042 10.3864 49.6168 11.9989 49.6168 13.9864C49.6168 15.9739 48.0042 17.5864 46.0167 17.5864C44.0292 17.5864 42.4167 15.9739 42.4167 13.9864Z"
        fill="#1E1E1E" />
    <path fill-rule="evenodd" clip-rule="evenodd"
        d="M14.5964 30.0003C14.5964 21.4921 21.4946 14.5939 30.0028 14.5939H30.0022C38.5104 14.5939 45.4067 21.4921 45.4067 30.0003C45.4067 38.5085 38.511 45.4036 30.0028 45.4036C21.4946 45.4036 14.5964 38.5085 14.5964 30.0003ZM40.0029 30.0003C40.0029 24.4771 35.5254 20.0002 30.0028 20.0002C24.4796 20.0002 20.0027 24.4771 20.0027 30.0003C20.0027 35.5229 24.4796 40.0004 30.0028 40.0004C35.5254 40.0004 40.0029 35.5229 40.0029 30.0003Z"
        fill="#e60023" />
    <path fill-rule="evenodd" clip-rule="evenodd"
        d="M17.6327 0.181252C20.8321 0.0356539 21.8548 1.36666e-05 29.9981 3.93016e-09C38.1439 1.36666e-05 39.1629 0.0356539 42.3623 0.181252C45.5561 0.327504 47.7374 0.833134 49.6499 1.57502C51.6249 2.34065 53.2937 3.36566 54.9624 5.03443C56.6312 6.70194 57.6562 8.37571 58.425 10.3489C59.1625 12.2564 59.6687 14.4364 59.8187 17.6302C59.9625 20.8302 60 21.8527 60 30.0003C60 38.1479 59.9625 39.1679 59.8187 42.3679C59.6687 45.5605 59.1625 47.7411 58.425 49.6493C57.6562 51.6218 56.6312 53.2956 54.9624 54.9631C53.2956 56.6318 51.6243 57.6594 49.6518 58.4256C47.743 59.1675 45.5605 59.6731 42.3667 59.8194C39.1667 59.965 38.1473 60.0006 29.9991 60.0006C21.8521 60.0006 20.8302 59.965 17.6302 59.8194C14.437 59.6731 12.2564 59.1675 10.3476 58.4256C8.37571 57.6594 6.70194 56.6318 5.03505 54.9631C3.36691 53.2956 2.3419 51.6218 1.57502 49.6486C0.833759 47.7411 0.328129 45.5611 0.181252 42.3673C0.036251 39.1673 0 38.1479 0 30.0003C0 21.8527 0.0375001 20.8296 0.180627 17.6296C0.324378 14.437 0.830633 12.2564 1.57439 10.3482C2.34315 8.37571 3.36816 6.70194 5.03693 5.03443C6.70444 3.36629 8.37821 2.34127 10.3514 1.57502C12.2589 0.833134 14.4389 0.327504 17.6327 0.181252ZM29.0029 5.40601C28.3963 5.40574 27.8341 5.40549 27.3115 5.40631V5.39881C21.7202 5.40506 20.6477 5.44256 17.8802 5.56756C14.9552 5.70193 13.367 6.18944 12.3095 6.60194C10.9095 7.14695 9.90948 7.79696 8.85947 8.84697C7.80946 9.89698 7.1582 10.897 6.61444 12.297C6.20381 13.3545 5.71506 14.942 5.58131 17.8671C5.43756 21.0296 5.40881 21.9746 5.40881 29.9859C5.40881 37.9973 5.43756 38.9473 5.58131 42.1098C5.71443 45.0348 6.20381 46.6224 6.61444 47.6786C7.15945 49.0793 7.80946 50.0768 8.85947 51.1268C9.90948 52.1768 10.9095 52.8268 12.3095 53.3706C13.3676 53.7812 14.9552 54.2699 17.8802 54.4049C21.0427 54.5487 21.9921 54.5799 30.0028 54.5799C38.0129 54.5799 38.9629 54.5487 42.1254 54.4049C45.0505 54.2712 46.6392 53.7837 47.6955 53.3712C49.0961 52.8274 50.093 52.1774 51.143 51.1274C52.193 50.078 52.8443 49.0811 53.3881 47.6811C53.7987 46.6249 54.2874 45.0373 54.4212 42.1123C54.5649 38.9498 54.5962 37.9998 54.5962 29.9934C54.5962 21.9871 54.5649 21.0371 54.4212 17.8746C54.2881 14.9495 53.7987 13.362 53.3881 12.3058C52.843 10.9057 52.193 9.90573 51.143 8.85572C50.0936 7.80571 49.0955 7.1557 47.6955 6.61194C46.638 6.20131 45.0505 5.71256 42.1254 5.57881C38.9623 5.43506 38.0129 5.40631 30.0028 5.40631C29.6566 5.40631 29.3235 5.40616 29.0029 5.40601Z"
        fill="#e60023" />
    <path
        d="M29.9981 3.93016e-09C29.9997 3.93016e-09 30.0012 0 30.0028 0H29.9934C29.995 0 29.9966 3.93016e-09 29.9981 3.93016e-09Z"
        fill="#e60023" />
</svg>
    